<?xml version="1.0" encoding="UTF-8"?>
<svg width="510px" height="350px" viewBox="0 0 510 350" version="1.1" xmlns="http://www.w3.org/2000/svg" xmlns:xlink="http://www.w3.org/1999/xlink">
    <!-- Generator: Sketch 52.4 (67378) - http://www.bohemiancoding.com/sketch -->
    <title>Service Resources</title>
    <desc>Created with Sketch.</desc>
    <g id="Page-1" stroke="none" stroke-width="1" fill="none" fill-rule="evenodd">
        <g id="SERVICES" transform="translate(-340.000000, -2794.000000)">
            <g transform="translate(340.000000, 544.000000)" id="Group-6-Copy-5">
                <g transform="translate(0.000000, 2250.000000)">
                    <g id="Group-17">
                        <rect id="Bounds" fill="#FFFFFF" x="0" y="0" width="510" height="350" rx="20"></rect>
                        <g id="Group-29" transform="translate(137.000000, 28.500000)">
                            <g id="Group-26" transform="translate(0.100000, 0.400000)">
                                <path d="M138.461162,195.007702 C138.461162,195.007702 13.4523521,195.007702 10.8497061,195.007702 C7.78951737,195.007702 6.58901225,196.803794 6.58901225,199.651402 L6.58901225,246.129994 C6.58901225,248.977602 7.78951737,250.773694 10.8497061,250.773694 C13.4523521,250.773694 138.461162,250.773694 138.461162,250.773694 L138.461162,195.007702" id="Fill-3" fill="#2C0257"></path>
                                <path d="M188.09366,195.007702 L71.5688029,195.007702 C69.0097324,195.007702 68.086724,198.605827 68.086724,198.605827 C68.086724,198.605827 66.9775294,195.007702 64.3768641,195.007702 C61.3146946,195.007702 60.1143876,196.803794 60.1143876,199.651402 L60.1143876,246.129994 C60.1143876,248.977602 61.3146946,250.773694 64.3768641,250.773694 C66.9775294,250.773694 68.086724,247.175569 68.086724,247.175569 C68.086724,247.175569 69.0097324,250.773694 71.5688029,250.773694 L188.09366,250.773694 C184.66506,242.559592 182.737835,233.747452 182.737835,222.891688 C182.737835,212.033944 184.66506,203.221804 188.09366,195.007702" id="Fill-4" fill="#DEF1F1"></path>
                                <path d="M72.5254832,253.716355 L10.8497061,253.716355 C6.33924539,253.716355 3.64627928,250.880628 3.64627928,246.129994 L3.64627928,199.651402 C3.64627928,194.900768 6.33924539,192.065041 10.8497061,192.065041 L72.5254832,192.065041 L72.5254832,197.948382 L10.8497061,197.948382 C9.89064891,197.948382 9.53154715,197.948382 9.53154715,199.651402 L9.53154715,246.129994 C9.53154715,247.833014 9.89064891,247.833014 10.8497061,247.833014 L72.5254832,247.833014 L72.5254832,253.716355" id="Fill-5" fill="#2C0257"></path>
                                <path d="M191.987726,253.716355 L71.5688029,253.716355 C70.118927,253.716355 68.9364463,253.189607 67.9975923,252.419287 C67.0290277,253.187627 65.8267399,253.716355 64.3768641,253.716355 C59.8648188,253.716355 57.1730411,250.880628 57.1730411,246.129994 L57.1730411,199.651402 C57.1730411,194.900768 59.8648188,192.065041 64.3768641,192.065041 C65.8267399,192.065041 67.0290277,192.59377 67.9975923,193.362109 C68.9364463,192.591789 70.118927,192.065041 71.5688029,192.065041 L191.987726,192.065041 L191.987726,197.948382 L71.6777416,197.948382 C71.4380763,198.158289 71.0835302,198.819695 70.9349773,199.346443 C70.622026,200.64153 69.4910436,201.56235 68.1580294,201.594034 C66.819073,201.625718 65.6524379,200.758366 65.2780847,199.47912 C65.0760529,198.873162 64.6026644,198.114724 64.3253658,197.948382 C63.4043381,197.950362 63.0577148,197.978086 63.0577148,199.651402 L63.0577148,246.129994 C63.0577148,247.80331 63.4043381,247.831034 64.3253658,247.833014 C64.6224715,247.654791 65.1176477,246.821103 65.2741233,246.310197 C65.6643221,245.042833 66.8507643,244.16756 68.1758557,244.211126 C69.4989664,244.254691 70.6240067,245.149767 70.9349773,246.434953 C71.0835302,246.963682 71.4380763,247.623107 71.6777416,247.833014 L191.987726,247.833014 L191.987726,253.716355" id="Fill-6" fill="#2C0257"></path>
                                <path d="M204.052198,292.745223 L45.6611854,292.745223 C43.1912466,292.745223 39.8299908,291.774897 37.840571,287.15892 C36.5033972,284.057839 35.853528,279.50127 35.853528,273.229799 C35.853528,266.960308 36.5033972,262.403739 37.840571,259.302658 C39.8299908,254.6847 43.1912466,253.716355 45.6611854,253.716355 L204.052198,253.716355 L204.052198,257.639242 L45.6611854,257.639242 C44.0528532,257.639242 39.7765117,257.639242 39.7765117,273.229799 C39.7765117,288.822336 44.0528532,288.822336 45.6611854,288.822336 L204.052198,288.822336 L204.052198,292.745223" id="Fill-7" fill="#2C0257"></path>
                                <path d="M204.052198,290.782789 L45.6611854,290.782789 C40.0716367,290.782789 37.8150199,284.899448 37.8150199,273.229799 C37.8150199,261.56015 40.0716367,255.676809 45.6611854,255.676809 L204.052198,255.676809 L204.052198,290.782789" id="Fill-8" fill="#2C0257"></path>
                                <path d="M221.902309,273.229799 C221.902309,288.234199 224.257367,290.782789 224.257367,290.782789 L169.134355,290.782789 L166.878332,288.038154 L164.818399,290.782789 C159.228851,290.782789 156.970847,284.899448 156.970847,273.229799 C156.970847,261.56015 159.228851,255.676809 164.818399,255.676809 L166.878332,258.423424 L169.134355,255.676809 L224.257367,255.676809 C224.257367,255.676809 221.902309,258.227378 221.902309,273.229799" id="Fill-9" fill="#DEF1F1"></path>
                                <path d="M228.965502,292.745223 L169.134355,292.745223 C168.548066,292.745223 167.991488,292.481849 167.619116,292.02837 L166.947657,291.212505 L166.387117,291.959061 C166.016726,292.454125 165.436379,292.745223 164.818399,292.745223 C162.348461,292.745223 158.987205,291.774897 156.996596,287.15892 C155.659621,284.057839 155.00995,279.50127 155.00995,273.229799 C155.00995,266.960308 155.659621,262.403739 156.996596,259.302658 C158.987205,254.6847 162.348461,253.716355 164.818399,253.716355 C165.436379,253.716355 166.016726,254.007453 166.387117,254.500536 L166.947657,255.249073 L167.619116,254.433208 C167.991488,253.977749 168.548066,253.716355 169.134355,253.716355 L228.965502,253.716355 L228.965502,257.639242 L170.061325,257.639242 L168.393571,259.667025 C168.021199,260.122484 167.464621,260.383877 166.878332,260.383877 C166.864467,260.383877 166.850602,260.383877 166.834757,260.383877 C166.232622,260.370016 165.670102,260.080898 165.309614,259.599696 L163.883507,257.70063 C161.964204,258.027373 158.933726,260.100701 158.933726,273.229799 C158.933726,286.358897 161.964204,288.432225 163.883507,288.760948 L165.309614,286.861882 C165.670102,286.378699 166.232622,286.089582 166.834757,286.077701 C167.436891,286.063839 168.011295,286.327213 168.393571,286.792573 L170.061325,288.822336 L228.965502,288.822336 L228.965502,292.745223" id="Fill-10" fill="#2C0257"></path>
                                <path d="M50.3693205,273.229799 C50.3693205,264.528553 51.4705923,253.716355 60.1777701,253.716355 L57.2978255,253.716355 C48.5926284,253.716355 47.4893758,264.528553 47.4893758,273.229799 C47.4893758,281.933024 48.5926284,292.745223 57.2978255,292.745223 L60.1777701,292.745223 C51.472573,292.745223 50.3693205,281.933024 50.3693205,273.229799" id="Fill-11" fill="#775C92"></path>
                                <path d="M136.981576,273.229799 C136.981576,264.528553 138.082847,253.716355 146.790025,253.716355 L142.949439,253.716355 C134.244242,253.716355 133.14297,264.528553 133.14297,273.229799 C133.14297,281.933024 134.244242,292.745223 142.949439,292.745223 L146.790025,292.745223 C138.082847,292.745223 136.981576,281.933024 136.981576,273.229799" id="Fill-12" fill="#775C92"></path>
                                <path d="M125.893591,273.229799 C125.893591,264.528553 126.996843,253.716355 135.70204,253.716355 L131.863435,253.716355 C123.156257,253.716355 122.054985,264.528553 122.054985,273.229799 C122.054985,281.933024 123.156257,292.745223 131.863435,292.745223 L135.70204,292.745223 C126.996843,292.745223 125.893591,281.933024 125.893591,273.229799" id="Fill-13" fill="#775C92"></path>
                                <path d="M70.5744891,171.846626 L228.965502,171.846626 C234.557031,171.846626 234.541185,174.989293 234.541185,181.221159 C234.541185,187.453025 234.557031,190.593711 228.965502,190.593711 L70.5744891,190.593711 L70.5744891,171.846626" id="Fill-18" fill="#7A5271"></path>
                                <path d="M236.012849,181.268685 L236.012849,181.171652 C236.012849,174.882359 235.93164,170.375296 228.965502,170.375296 L70.5744891,170.375296 L70.5744891,173.317956 L228.965502,173.317956 C231.621627,173.317956 232.184147,174.074414 232.50106,174.785326 C233.069522,176.05467 233.069522,178.312162 233.069522,181.171652 L233.069522,181.268685 C233.069522,184.128175 233.069522,186.387647 232.50106,187.655011 C232.184147,188.365923 231.621627,189.124361 228.965502,189.124361 L70.5744891,189.124361 L70.5744891,192.065041 L228.965502,192.065041 C236.109904,192.065041 236.012849,187.225295 236.012849,181.268685" id="Fill-19" fill="#7A5271"></path>
                                <path d="M70.5744891,170.375296 L228.965502,170.375296 C235.93164,170.375296 236.012849,174.882359 236.012849,181.171652 L236.012849,181.268685 C236.012849,187.225295 236.109904,192.065041 228.965502,192.065041 L70.5744891,192.065041 L70.5744891,170.375296" id="Fill-20" fill="#2C0257"></path>
                                <path d="M52.7243784,181.221159 C52.7243784,173.209042 50.3693205,171.846626 50.3693205,171.846626 L105.492332,171.846626 L107.748355,173.313996 L109.808288,171.846626 C115.399817,171.846626 115.383971,174.989293 115.383971,181.221159 C115.383971,187.453025 115.399817,190.593711 109.808288,190.593711 L107.748355,189.128321 L105.492332,190.593711 L50.3693205,190.593711 C50.3693205,190.593711 52.7243784,189.233275 52.7243784,181.221159" id="Fill-21" fill="#FFFFFE"></path>
                                <path d="M109.808288,192.065041 C109.503259,192.065041 109.204173,191.969989 108.954604,191.793746 L107.710721,190.906591 L106.294518,191.82741 C106.056833,191.983851 105.777554,192.065041 105.492332,192.065041 L45.6611854,192.065041 L45.6611854,189.124361 L105.056577,189.124361 L106.946169,187.894622 C107.45323,187.565899 108.108843,187.579761 108.602039,187.930266 L110.267811,189.11446 C112.531757,189.031289 113.044759,188.322357 113.343846,187.655011 C113.914289,186.387647 113.914289,184.128175 113.914289,181.268685 L113.914289,181.171652 C113.914289,178.312162 113.914289,176.05467 113.343846,174.785326 C113.044759,174.11798 112.531757,173.409048 110.267811,173.325878 L108.602039,174.510071 C108.110824,174.862556 107.45323,174.874438 106.946169,174.545715 L105.056577,173.317956 L45.6611854,173.317956 L45.6611854,170.375296 L105.492332,170.375296 C105.777554,170.375296 106.056833,170.458467 106.294518,170.612927 L107.710721,171.533746 L108.954604,170.648571 C109.204173,170.470348 109.503259,170.375296 109.808288,170.375296 C111.862279,170.375296 114.742223,170.707979 116.029681,173.583311 C116.855635,175.426929 116.855635,177.836901 116.855635,181.171652 L116.855635,181.268685 C116.855635,184.605416 116.855635,187.015388 116.029681,188.859007 C114.742223,191.732358 111.862279,192.065041 109.808288,192.065041" id="Fill-22" fill="#2C0257"></path>
                                <path d="M206.823204,33.2524608 L48.4321913,33.2524608 C44.6054698,33.2524608 41.6106443,31.5553813 39.7725503,28.3434059 C38.2236393,25.638376 37.4707734,21.8099468 37.4707734,16.6396961 C37.4707734,11.4698415 38.2236393,7.64121429 39.7725503,4.93519431 C41.6106443,1.72460506 44.6054698,0.0277235857 48.4321913,0.0277235857 L206.823204,0.0277235857 L206.823204,5.9108665 L48.4321913,5.9108665 C46.784245,5.9108665 43.3556451,5.9108665 43.3556451,16.6396961 C43.3556451,27.3691199 46.784245,27.3691199 48.4321913,27.3691199 L206.823204,27.3691199 L206.823204,33.2524608" id="Fill-27" fill="#2C0257"></path>
                                <path d="M206.823204,2.96919603 L48.4321913,2.96919603 C42.8426426,2.96919603 40.4142987,7.55170672 40.4142987,16.6396961 C40.4142987,25.7274875 42.8426426,30.3098002 48.4321913,30.3098002 L206.823204,30.3098002 L206.823204,2.96919603" id="Fill-28" fill="#2C0257"></path>
                                <path d="M64.0936233,28.3434059 C62.5447122,25.638376 61.7920445,21.8099468 61.7920445,16.6396961 C61.7920445,11.4698415 62.5447122,7.64121429 64.0936233,4.93519431 C65.9317173,1.72460506 68.9245621,0.0277235857 72.7532643,0.0277235857 L66.074328,0.0277235857 C62.2456258,0.0277235857 59.2508003,1.72460506 57.4146871,4.93519431 C55.8637953,7.64121429 55.1111275,11.4698415 55.1111275,16.6396961 C55.1111275,21.8099468 55.8637953,25.638376 57.4146871,28.3434059 C59.2508003,31.5553813 62.2456258,33.2524608 66.074328,33.2524608 L72.7532643,33.2524608 C68.9245621,33.2524608 65.9317173,31.5553813 64.0936233,28.3434059" id="Fill-29" fill="#775C92"></path>
                                <path d="M139.300981,28.3434059 C137.75207,25.638376 136.999402,21.8099468 136.999402,16.6396961 C136.999402,11.4698415 137.75207,7.64121429 139.300981,4.93519431 C141.139075,1.72460506 144.131919,0.0277235857 147.960622,0.0277235857 L141.281685,0.0277235857 C137.452983,0.0277235857 134.458158,1.72460506 132.620064,4.93519431 C131.071153,7.64121429 130.318485,11.4698415 130.318485,16.6396961 C130.318485,21.8099468 131.071153,25.638376 132.620064,28.3434059 C134.458158,31.5553813 137.452983,33.2524608 141.281685,33.2524608 L147.960622,33.2524608 C144.131919,33.2524608 141.139075,31.5553813 139.300981,28.3434059" id="Fill-30" fill="#775C92"></path>
                                <path d="M224.673315,16.6396961 C224.673315,4.95479884 227.028372,2.96919603 227.028372,2.96919603 L171.905361,2.96919603 L169.649338,5.10767461 L167.589405,2.96919603 C161.997876,2.96919603 159.569532,7.55170672 159.569532,16.6396961 C159.569532,25.7274875 161.997876,30.3098002 167.589405,30.3098002 L169.649338,28.1731038 L171.905361,30.3098002 L227.028372,30.3098002 C227.028372,30.3098002 224.673315,28.3255836 224.673315,16.6396961" id="Fill-31" fill="#DEF1F1"></path>
                                <path d="M231.736508,33.2524608 L171.905361,33.2524608 C171.152693,33.2524608 170.427755,32.9633434 169.881081,32.4445163 L169.744412,32.3157996 L169.708759,32.3514443 C169.154162,32.9276988 168.38961,33.2524608 167.589405,33.2524608 C163.762684,33.2524608 160.767858,31.5553813 158.929764,28.3434059 C157.380853,25.638376 156.628185,21.8099468 156.628185,16.6396961 C156.628185,11.4698415 157.380853,7.64121429 158.929764,4.93519431 C160.767858,1.72460506 163.762684,0.0277235857 167.589405,0.0277235857 C168.38961,0.0277235857 169.154162,0.352683615 169.708759,0.928542095 L169.744412,0.964582757 L169.881081,0.834479929 C170.427755,0.316246903 171.152693,0.0277235857 171.905361,0.0277235857 L231.736508,0.0277235857 L231.736508,5.9108665 L173.077938,5.9108665 L171.673618,7.24258874 C170.501041,8.35430452 168.651063,8.31212507 167.529984,7.14832855 L166.42277,5.99819579 C164.701538,6.34474061 162.512859,8.06815751 162.512859,16.6396961 C162.512859,25.2116308 164.701538,26.9354438 166.42277,27.2819886 L167.529984,26.1314598 C168.651063,24.9676633 170.501041,24.9256818 171.673618,26.0364075 L173.077938,27.3691199 L231.736508,27.3691199 L231.736508,33.2524608" id="Fill-32" fill="#2C0257"></path>
                                <path d="M13.5454452,35.7040179 L185.817831,35.7040179 C188.836424,35.7040179 192.896869,45.5082659 192.896869,64.954381 C192.896869,84.4004961 188.836424,94.2067245 185.817831,94.2067245 L13.5454452,94.2067245 L13.5454452,35.7040179" id="Fill-37" fill="#2C0257"></path>
                                <path d="M185.817831,96.6582815 L13.5454452,96.6582815 L13.5454452,91.7551674 L185.550435,91.7551674 C185.90102,91.4403067 187.228092,89.9650158 188.48782,84.8539748 C189.381118,81.2360469 190.444757,74.8477406 190.444757,64.954381 C190.444757,55.0610214 189.381118,48.6727152 188.48782,45.0547873 C187.228092,39.9457265 185.90102,38.4704357 185.550435,38.1555749 L13.5454452,38.1555749 L13.5454452,33.2524608 L185.817831,33.2524608 C188.757196,33.2524608 191.124138,36.3178973 192.847352,42.3655995 C193.988237,46.3657168 195.347001,53.5322637 195.347001,64.954381 C195.347001,76.3784786 193.988237,83.5450255 192.847352,87.5451429 C191.124138,93.5928451 188.757196,96.6582815 185.817831,96.6582815" id="Fill-38" fill="#2C0257"></path>
                                <path d="M178.53676,42.3655995 C176.811566,36.3178973 174.446605,33.2524608 171.507239,33.2524608 L167.591386,33.2524608 C170.530752,33.2524608 172.895713,36.3178973 174.620907,42.3655995 C175.761793,46.3657168 177.120556,53.5322637 177.120556,64.954381 C177.120556,76.3784786 175.761793,83.5450255 174.620907,87.5451429 C172.895713,93.5928451 170.530752,96.6582815 167.591386,96.6582815 L171.507239,96.6582815 C174.446605,96.6582815 176.811566,93.5928451 178.53676,87.5451429 C179.677646,83.5450255 181.036409,76.3784786 181.036409,64.954381 C181.036409,53.5322637 179.677646,46.3657168 178.53676,42.3655995" id="Fill-39" fill="#775C92"></path>
                                <path d="M11.8568945,64.954381 C11.8568945,39.9536475 5.79257089,35.7040179 5.79257089,35.7040179 L160.512347,35.7040179 C163.532922,35.7040179 167.591386,45.5082659 167.591386,64.954381 C167.591386,84.4004961 163.532922,94.2067245 160.512347,94.2067245 L5.79257089,94.2067245 C5.79257089,94.2067245 11.8568945,89.9570948 11.8568945,64.954381" id="Fill-40" fill="#FFFFFE"></path>
                                <path d="M160.512347,96.6582815 L0.0867548658,96.6582815 L0.0867548658,91.7551674 L160.244952,91.7551674 C160.595537,91.4403067 161.922609,89.9650158 163.182337,84.8539748 C164.075635,81.2360469 165.139273,74.8477406 165.139273,64.954381 C165.139273,55.0610214 164.075635,48.6727152 163.182337,45.0547873 C161.922609,39.9457265 160.595537,38.4704357 160.244952,38.1555749 L0.0867548658,38.1555749 L0.0867548658,33.2524608 L160.512347,33.2524608 C163.451713,33.2524608 165.816674,36.3178973 167.541868,42.3655995 C168.682754,46.3657168 170.041518,53.5322637 170.041518,64.954381 C170.041518,76.3784786 168.682754,83.5450255 167.541868,87.5451429 C165.816674,93.5908648 163.451713,96.6582815 160.512347,96.6582815" id="Fill-41" fill="#2C0257"></path>
                                <path d="M52.203453,129.132502 L220.591082,129.132502 C223.611657,129.132502 227.670121,135.635663 227.670121,148.52911 C227.670121,161.422558 223.611657,167.923739 220.591082,167.923739 L52.203453,167.923739 L52.203453,129.132502" id="Fill-42" fill="#54274B"></path>
                                <path d="M220.591082,170.375296 L52.203453,170.375296 L52.203453,165.472182 L220.563352,165.472182 C221.611145,165.216729 225.218008,160.610653 225.218008,148.52911 C225.218008,136.447568 221.611145,131.839512 220.563352,131.586039 L52.203453,131.586039 L52.203453,126.682925 L220.591082,126.682925 C223.296725,126.682925 225.75676,128.934476 227.515626,133.027665 C229.221013,136.992138 230.122233,142.352692 230.122233,148.52911 C230.122233,154.705529 229.221013,160.066083 227.515626,164.030555 C225.75676,168.121764 223.296725,170.375296 220.591082,170.375296" id="Fill-43" fill="#54274B"></path>
                                <path d="M50.5139119,148.52911 C50.5139119,131.950406 44.4489941,129.132502 44.4489941,129.132502 L220.591082,129.132502 C223.611657,129.132502 227.670121,135.635663 227.670121,148.52911 C227.670121,161.422558 223.611657,167.923739 220.591082,167.923739 L44.4489941,167.923739 C44.4489941,167.923739 50.5139119,165.107815 50.5139119,148.52911" id="Fill-44" fill="#FFFFFE"></path>
                                <path d="M220.591082,170.375296 L38.7435742,170.375296 L38.7435742,165.472182 L220.563352,165.472182 C221.611145,165.216729 225.218008,160.610653 225.218008,148.52911 C225.218008,136.447568 221.611145,131.839512 220.563352,131.586039 L38.7435742,131.586039 L38.7435742,126.682925 L220.591082,126.682925 C223.296725,126.682925 225.75676,128.934476 227.515626,133.027665 C229.221013,136.992138 230.122233,142.352692 230.122233,148.52911 C230.122233,154.705529 229.221013,160.066083 227.515626,164.030555 C225.75676,168.121764 223.296725,170.375296 220.591082,170.375296" id="Fill-45" fill="#2C0257"></path>
                                <path d="M190.601232,148.52911 C190.601232,131.950406 184.538295,129.132502 184.538295,129.132502 L220.591082,129.132502 C223.611657,129.132502 227.670121,135.635663 227.670121,148.52911 C227.670121,161.422558 223.611657,167.923739 220.591082,167.923739 L184.538295,167.923739 C184.538295,167.923739 190.601232,165.107815 190.601232,148.52911" id="Fill-46" fill="#80C4CA"></path>
                                <path d="M190.601232,148.52911 C190.601232,131.950406 184.538295,129.132502 184.538295,129.132502 L215.568015,129.132502 C218.58859,129.132502 222.647054,135.635663 222.647054,148.52911 C222.647054,161.422558 218.58859,167.923739 215.568015,167.923739 L184.538295,167.923739 C184.538295,167.923739 190.601232,165.107815 190.601232,148.52911" id="Fill-47" fill="#DEF1F1"></path>
                                <path d="M220.591082,170.375296 L178.831885,170.375296 L178.831885,165.472182 L220.563352,165.472182 C221.611145,165.216729 225.218008,160.610653 225.218008,148.52911 C225.218008,136.447568 221.611145,131.839512 220.563352,131.586039 L178.831885,131.586039 L178.831885,126.682925 L220.591082,126.682925 C223.296725,126.682925 225.75676,128.934476 227.515626,133.027665 C229.221013,136.992138 230.122233,142.352692 230.122233,148.52911 C230.122233,154.705529 229.221013,160.066083 227.515626,164.030555 C225.75676,168.121764 223.296725,170.375296 220.591082,170.375296" id="Fill-48" fill="#2C0257"></path>
                                <path d="M28.2266265,112.65083 L200.498814,112.65083 C203.517408,112.65083 204.242346,114.755842 204.242346,118.930222 C204.242346,123.106582 203.517408,125.211595 200.498814,125.211595 L28.2266265,125.211595 L28.2266265,112.65083" id="Fill-49" fill="#2C0257"></path>
                                <path d="M200.498814,126.682925 L28.2266265,126.682925 L28.2266265,123.740264 L200.498814,123.740264 C201.716947,123.740264 202.770682,123.740264 202.770682,118.930222 C202.770682,114.12018 201.716947,114.12018 200.498814,114.12018 L28.2266265,114.12018 L28.2266265,111.1795 L200.498814,111.1795 C205.714009,111.1795 205.714009,116.415297 205.714009,118.930222 C205.714009,121.447128 205.714009,126.682925 200.498814,126.682925" id="Fill-50" fill="#2C0257"></path>
                                <path d="M191.904536,111.1795 L185.405844,111.1795 C190.619059,111.1795 190.619059,116.415297 190.619059,118.930222 C190.619059,121.447128 190.619059,126.682925 185.405844,126.682925 L191.904536,126.682925 C197.119732,126.682925 197.119732,121.447128 197.119732,118.930222 C197.119732,116.415297 197.119732,111.1795 191.904536,111.1795" id="Fill-51" fill="#775C92"></path>
                                <path d="M112.565429,111.1795 L106.066737,111.1795 C111.281932,111.1795 111.281932,116.415297 111.281932,118.930222 C111.281932,121.447128 111.281932,126.682925 106.066737,126.682925 L112.565429,126.682925 C117.780624,126.682925 117.780624,121.447128 117.780624,118.930222 C117.780624,116.415297 117.780624,111.1795 112.565429,111.1795" id="Fill-52" fill="#775C92"></path>
                                <path d="M20.4737522,112.65083 L96.6484857,112.65083 C99.6690604,112.65083 100.392018,114.755842 100.392018,118.930222 C100.392018,123.106582 99.6690604,125.211595 96.6484857,125.211595 L20.4737522,125.211595 L20.4737522,112.65083" id="Fill-53" fill="#FFFFFE"></path>
                                <path d="M96.6484857,126.682925 L14.7679362,126.682925 L14.7679362,123.740264 L96.6484857,123.740264 C97.8666191,123.740264 98.920354,123.740264 98.920354,118.930222 C98.920354,114.12018 97.8666191,114.12018 96.6484857,114.12018 L14.7679362,114.12018 L14.7679362,111.1795 L96.6484857,111.1795 C101.863681,111.1795 101.863681,116.415297 101.863681,118.930222 C101.863681,121.447128 101.863681,126.682925 96.6484857,126.682925" id="Fill-54" fill="#2C0257"></path>
                                <path d="M205.484247,97.6385083 L42.2464505,97.6385083 C39.2258758,97.6385083 36.3619749,99.7435206 36.3619749,103.9179 C36.3619749,108.094261 39.2258758,110.199273 42.2464505,110.199273 L205.484247,110.199273 L205.484247,97.6385083" id="Fill-69" fill="#2C0257"></path>
                                <path d="M205.484247,111.1795 L42.2464505,111.1795 C38.9406544,111.1795 35.3811299,108.908146 35.3811299,103.9179 C35.3811299,98.9296353 38.9406544,96.6582815 42.2464505,96.6582815 L205.484247,96.6582815 L205.484247,98.6187351 L42.2464505,98.6187351 C39.8062223,98.6187351 37.3428199,100.258387 37.3428199,103.9179 C37.3428199,107.579394 39.8062223,109.219046 42.2464505,109.219046 L205.484247,109.219046 L205.484247,111.1795" id="Fill-70" fill="#2C0257"></path>
                                <path d="M215.439269,97.6385083 L160.15384,97.6385083 C157.133265,97.6385083 155.370438,99.7435206 155.370438,103.9179 C155.370438,108.094261 157.133265,110.199273 160.15384,110.199273 L215.439269,110.199273 C215.439269,110.199273 213.787362,108.361595 213.787362,103.9179 C213.787362,99.476186 215.439269,97.6385083 215.439269,97.6385083" id="Fill-71" fill="#DEF1F1"></path>
                                <path d="M218.943136,111.1795 L160.15384,111.1795 C156.489536,111.1795 154.389989,108.533877 154.389989,103.9179 C154.389989,99.3039037 156.489536,96.6582815 160.15384,96.6582815 L218.943136,96.6582815 L218.943136,98.6187351 L160.15384,98.6187351 C157.630422,98.6187351 156.350887,100.402946 156.350887,103.9179 C156.350887,107.434835 157.630422,109.219046 160.15384,109.219046 L218.943136,109.219046 L218.943136,111.1795" id="Fill-72" fill="#2C0257"></path>
                            </g>
                        </g>
                    </g>
                </g>
            </g>
        </g>
    </g>
</svg>